# xmcd
#
# Track frame offsets: 
#        150
#        21518
#        37507
#        60408
#        74745
#        91505
#        116528
#        132229
#        154680
#        174118
#        190131
#        208465
#        225298
#        245795
#        265170
#        291033
#        313100
#
# Disc length: 4450 seconds
#
# Revision: 6
# Processed by: cddbd v1.5.2PL0 Copyright (c) Steve Scherf et al.
# Submitted via: ExactAudioCopy v1.0b3
#
DISCID=e6116011
DTITLE=松任谷由実 - SEASONS COLOURS -winter- DISK2 winter
DYEAR=2007
DGENRE=JPop
TTITLE0=ノーサイド
TTITLE1=残されたもの
TTITLE2=木枯らしのダイアリー
TTITLE3=12月の雨 
TTITLE4=真冬のサーファー 
TTITLE5=SUGAR TOWNはさよならの町 
TTITLE6=一緒に暮らそう 
TTITLE7=Walk on,Walk on by
TTITLE8=忘れかけたあなたへのメリークリスマス  
TTITLE9=3-Dのクリスマスカード 
TTITLE10=ロッヂで待つクリスマス 
TTITLE11=A HAPPY NEW YEAR
TTITLE12=BLIZZARD
TTITLE13=雪だより 
TTITLE14=かんらん車 
TTITLE15=雪月花 
TTITLE16=冬の終わり 
EXTD=YEAR: 2007
EXTT0=
EXTT1=
EXTT2=
EXTT3=
EXTT4=
EXTT5=
EXTT6=
EXTT7=
EXTT8=
EXTT9=
EXTT10=
EXTT11=
EXTT12=
EXTT13=
EXTT14=
EXTT15=
EXTT16=
PLAYORDER=
